<svg width="24" height="25" viewBox="0 0 24 25" fill="none" xmlns="http://www.w3.org/2000/svg">
<path d="M12 3C9.34844 3 6.80312 4.05422 4.92969 5.92891C3.05433 7.80435 2.00054 10.3478 2 13C2 15.6511 3.05469 18.1964 4.92969 20.0711C6.80312 21.9458 9.34844 23 12 23C14.6516 23 17.1969 21.9458 19.0703 20.0711C20.9453 18.1964 22 15.6511 22 13C22 10.3489 20.9453 7.80359 19.0703 5.92891C17.1969 4.05422 14.6516 3 12 3Z" fill="url(#paint0_linear_11858_2575)"/>
<path d="M6.68735 12.444C9.37221 11.3151 11.1621 10.5709 12.0571 10.2112C14.6153 9.18443 15.1462 9.00609 15.493 9.00005C15.5693 8.99887 15.739 9.01707 15.8498 9.10352C15.9419 9.17644 15.9678 9.27505 15.9808 9.34429C15.9923 9.41345 16.0081 9.57109 15.9952 9.69415C15.857 11.0997 15.257 14.5105 14.952 16.0848C14.8239 16.7509 14.5693 16.9742 14.3232 16.996C13.788 17.0435 13.3822 16.6549 12.8643 16.3273C12.0542 15.8144 11.5966 15.4952 10.8096 14.9948C9.90026 14.4165 10.4902 14.0986 11.0082 13.5791C11.1434 13.4431 13.5002 11.3744 13.5448 11.1868C13.5506 11.1633 13.5563 11.0758 13.5017 11.0297C13.4484 10.9834 13.3693 10.9993 13.3117 11.0118C13.2297 11.0296 11.9362 11.8557 9.42688 13.49C9.05998 13.7336 8.72761 13.8523 8.42833 13.8461C8.10028 13.8393 7.4672 13.6666 6.9967 13.5191C6.42116 13.3381 5.96218 13.2425 6.00246 12.9351C6.02261 12.7751 6.25138 12.6113 6.68735 12.444Z" fill="white"/>
<defs>
<linearGradient id="paint0_linear_11858_2575" x1="1002" y1="3" x2="1002" y2="2003" gradientUnits="userSpaceOnUse">
<stop stop-color="#2AABEE"/>
<stop offset="1" stop-color="#229ED9"/>
</linearGradient>
</defs>
</svg>
