<svg width="24" height="25" viewBox="0 0 24 25" fill="none" xmlns="http://www.w3.org/2000/svg">
<path fill-rule="evenodd" clip-rule="evenodd" d="M12 2.5C6.477 2.5 2 6.977 2 12.5C2 14.39 2.525 16.16 3.438 17.668L2.546 20.7C2.49478 20.8741 2.49141 21.0587 2.53624 21.2346C2.58107 21.4104 2.67245 21.5709 2.80076 21.6992C2.92907 21.8276 3.08958 21.9189 3.26542 21.9638C3.44125 22.0086 3.62592 22.0052 3.8 21.954L6.832 21.062C8.39074 22.0049 10.1782 22.5023 12 22.5C17.523 22.5 22 18.023 22 12.5C22 6.977 17.523 2.5 12 2.5ZM9.738 14.763C11.761 16.785 13.692 17.052 14.374 17.077C15.411 17.115 16.421 16.323 16.814 15.404C16.8632 15.2896 16.881 15.1641 16.8655 15.0405C16.85 14.917 16.8019 14.7998 16.726 14.701C16.178 14.001 15.437 13.498 14.713 12.998C14.5619 12.8932 14.3761 12.8512 14.1946 12.8806C14.0131 12.9101 13.8502 13.0088 13.74 13.156L13.14 14.071C13.1083 14.12 13.0591 14.1551 13.0025 14.1692C12.9459 14.1833 12.886 14.1754 12.835 14.147C12.428 13.914 11.835 13.518 11.409 13.092C10.983 12.666 10.611 12.1 10.402 11.719C10.3767 11.6705 10.3696 11.6145 10.3819 11.5611C10.3941 11.5078 10.425 11.4606 10.469 11.428L11.393 10.742C11.5252 10.6276 11.6106 10.4684 11.6328 10.2949C11.6549 10.1215 11.6123 9.94596 11.513 9.802C11.065 9.146 10.543 8.312 9.786 7.759C9.6881 7.68866 9.57369 7.64479 9.45385 7.63165C9.33402 7.61851 9.21282 7.63654 9.102 7.684C8.182 8.078 7.386 9.088 7.424 10.127C7.449 10.809 7.716 12.74 9.738 14.763Z" fill="#17C14A"/>
</svg>
